<svg xmlns="http://www.w3.org/2000/svg" width="330" height="64" viewBox="0 0 330 64">
  <defs>
    <style>
      .cls-1 {
        fill: #fff;
        fill-rule: evenodd;
      }
    </style>
  </defs>
  <path id="logo_top.svg" class="cls-1" d="M227.269,57.156a17.353,17.353,0,0,0-17.367,17.3V98.6a5.017,5.017,0,1,0,10.034,0V74.454a7.219,7.219,0,0,1,7.333-7.258,5.02,5.02,0,0,0,0-10.04M92.252,65.794c8.652,0,11.588,6.6,11.588,10.007H79.77c0.9-5.88,6.842-10.007,12.482-10.007m0-8.749C79.982,57.045,70,67.339,70,79.992A23.307,23.307,0,0,0,77.57,97.339,23.729,23.729,0,0,0,93.391,103.7a22.622,22.622,0,0,0,13.4-4.383l0.191-.142a4.753,4.753,0,0,0-5.694-7.613l-0.135.1a13.134,13.134,0,0,1-7.76,2.529,14.475,14.475,0,0,1-13.22-9.819h25.241a8.03,8.03,0,0,0,7.992-7.523,4.635,4.635,0,0,0,.058-0.7c0-4.213-5.08-19.1-21.21-19.1m89.9,8.749c8.652,0,11.589,6.6,11.589,10.007H169.667c0.9-5.88,6.842-10.007,12.482-10.007m0-8.749c-12.269,0-22.251,10.294-22.251,22.947a23.31,23.31,0,0,0,7.569,17.348,23.732,23.732,0,0,0,15.821,6.362,22.621,22.621,0,0,0,13.4-4.383l0.191-.142a4.754,4.754,0,0,0-5.7-7.613l-0.134.1a13.133,13.133,0,0,1-7.76,2.529,14.476,14.476,0,0,1-13.22-9.819h25.241a8.032,8.032,0,0,0,7.993-7.523,4.767,4.767,0,0,0,.057-0.7c0-4.213-5.079-19.1-21.21-19.1m73.793,37.1c-6.676,0-12.087-6.168-12.087-13.776s5.411-13.778,12.087-13.778,12.088,6.168,12.088,13.778-5.412,13.776-12.088,13.776m22.2,1.029V81.282h-0.022c0.01-.29.022-0.579,0.022-0.872V80.365c0-.25-0.011-0.5-0.018-0.743l0-.064c-0.406-12.439-10.176-22.395-22.178-22.395-12.26,0-22.2,10.387-22.2,23.2s9.938,23.2,22.2,23.2a18.679,18.679,0,0,0,13.39-6.229c-0.159,1.764-.492,14-15.031,14-4.865,0-8.928-3.446-8.943-3.46a4.944,4.944,0,0,0-6.288,7.632A25.736,25.736,0,0,0,254.3,121c7.946,0,15.41-3.741,19.6-9.771,3.2-4.6,4.236-9.855,4.236-15.7V95.17ZM120.3,57.084a4.884,4.884,0,0,0-4.421,6.941l17.14,36.882a4.9,4.9,0,0,0,4.424,2.823H137.5a4.882,4.882,0,0,0,4.413-2.935l16.065-36.966a4.888,4.888,0,0,0-2.528-6.423A4.822,4.822,0,0,0,153.505,57a4.878,4.878,0,0,0-4.475,2.936l-0.74,1.7L137.321,87.872l-12.6-27.964a4.9,4.9,0,0,0-4.427-2.825m185.484,8.756a11.156,11.156,0,0,1,11.59,10.052H293.343c0.577-5.668,6.8-10.052,12.436-10.052M396.625,94.2c-5.889-1.79-10.275-10.006-13.063-16.03-4.733-10.226-11.37-20.677-24.715-20.677-14.756,0-20.272,10.235-25.138,19.265-5.055,9.381-9.422,17.482-23.5,17.482-7.071,0-14.209-3.339-16.451-9.767h25.186a8.031,8.031,0,0,0,7.992-7.53,4.681,4.681,0,0,0,.058-0.7c0-4.213-5.08-19.106-21.212-19.106-12.27,0-22.252,10.3-22.252,22.949A22.2,22.2,0,0,0,291.833,97.6a29.042,29.042,0,0,0,18.373,6.149c19.754,0,26.472-12.461,31.868-22.477C346.986,72.155,350.186,67,358.847,67c6.529,0,11.038,4.252,16.089,15.164,3.858,8.333,9.494,18.265,18.924,21.133a4.755,4.755,0,0,0,2.765-9.1" transform="translate(-70 -57)"/>
</svg>
